# xmcd
#
# Track frame offsets:
#	150
#	3646
#	30346
#	58751
#	81897
#	104850
#	128978
#	148733
#	171734
#	206201
#	227663
#	249953
#	291335
#
# Disc length: 4077 seconds
#
# Revision: 0
# Processed by: cddbd v1.5.2PL0 Copyright (c) Steve Scherf et al.
# Submitted via: audiograbber 1.83.01
#
DISCID=c70feb0d
DTITLE=Beth Hart - La Cigale, Paris, France - 20.06.2012 (1/2)
DYEAR=2012
DGENRE=Blues
TTITLE0=(Introduction)
TTITLE1=Sinner's Prayer
TTITLE2=Your Heart Is As Black As Night
TTITLE3=Delicious Surprise
TTITLE4=Happiness& Any Day Now
TTITLE5=Water Falls
TTITLE6=Good As It Gets
TTITLE7=Bottle Of Jesus
TTITLE8=Crashing Down
TTITLE9=L.A. Song
TTITLE10=Lifts You Up
TTITLE11=Wash Your Feet You Stinkin' Motherfucker
TTITLE12=Chocolate Jesus
EXTD=
EXTT0=
EXTT1=
EXTT2=
EXTT3=
EXTT4=
EXTT5=
EXTT6=
EXTT7=
EXTT8=
EXTT9=
EXTT10=
EXTT11=
EXTT12=
PLAYORDER=
